<svg width="12" height="12" viewBox="0 0 12 12" fill="none" xmlns="http://www.w3.org/2000/svg">
<g clip-path="url(#clip0_643_2337)">
<path d="M5.68503 0.975586C3.09441 0.975586 0.986771 3.08322 0.986771 5.67384C0.986771 8.26446 3.09441 10.3721 5.68503 10.3721C8.27565 10.3721 10.3833 8.26446 10.3833 5.67384C10.3833 3.08322 8.27565 0.975586 5.68503 0.975586ZM4.74585 7.74718L3.33376 6.33814C3.15018 6.15495 3.14981 5.85764 3.33293 5.67399C3.51618 5.49023 3.81372 5.48989 3.99738 5.67323L4.74491 6.41946L6.9 4.26437C7.08345 4.08092 7.38088 4.08091 7.56433 4.26437C7.74778 4.44782 7.74778 4.74525 7.56433 4.9287L4.74585 7.74718Z" fill="#2FAB73"/>
</g>
<defs>
<clipPath id="clip0_643_2337">
<rect width="11.2758" height="11.2758" fill="white" transform="translate(0.0467529 0.0360107)"/>
</clipPath>
</defs>
</svg>
