<svg width="12" height="12" viewBox="0 0 12 12" fill="none" xmlns="http://www.w3.org/2000/svg">
<path d="M5.01554 8.32982C4.95387 8.32994 4.89278 8.31789 4.83578 8.29434C4.77878 8.2708 4.72698 8.23624 4.68337 8.19263L2.69037 6.19916C2.64547 6.15585 2.60964 6.10403 2.58498 6.04673C2.56032 5.98943 2.54731 5.92778 2.54673 5.8654C2.54614 5.80302 2.55799 5.74115 2.58157 5.68339C2.60515 5.62563 2.64 5.57315 2.68408 5.52901C2.72816 5.48486 2.78059 5.44994 2.83832 5.42628C2.89604 5.40261 2.9579 5.39068 3.02028 5.39118C3.08266 5.39168 3.14432 5.40459 3.20166 5.42918C3.259 5.45376 3.31087 5.48951 3.35424 5.53435L5.01507 7.19519L8.00551 4.20569C8.09361 4.11753 8.21312 4.06798 8.33775 4.06793C8.46238 4.06789 8.58192 4.11736 8.67008 4.20545C8.75824 4.29355 8.80779 4.41306 8.80783 4.53769C8.80788 4.66232 8.75841 4.78186 8.67031 4.87002L5.34771 8.19263C5.3041 8.23624 5.25231 8.2708 5.1953 8.29434C5.1383 8.31789 5.07721 8.32994 5.01554 8.32982Z" fill="#2FAB73"/>
</svg>
